<svg width="40" height="45" viewBox="0 0 40 45" fill="none" xmlns="http://www.w3.org/2000/svg">
<g filter="url(#filter0_d_42_26)">
<path fill-rule="evenodd" clip-rule="evenodd" d="M10.8743 3.54966C10.8743 3.10646 15.4544 0 20.002 0C24.5496 0 29.1297 3.10646 29.1297 3.54966C29.1297 5.13179 28.9614 6.0689 28.8194 6.57904C28.725 6.91372 28.4117 7.09931 28.0638 7.09931H11.9402C11.5924 7.09931 11.279 6.91372 11.1847 6.57904C11.0427 6.0689 10.8743 5.13179 10.8743 3.54966ZM18.4807 3.04256C18.2118 3.04256 17.9538 3.14941 17.7636 3.33961C17.5734 3.52981 17.4665 3.78777 17.4665 4.05675C17.4665 4.32573 17.5734 4.58369 17.7636 4.77389C17.9538 4.96409 18.2118 5.07094 18.4807 5.07094H21.5233C21.7923 5.07094 22.0502 4.96409 22.2404 4.77389C22.4306 4.58369 22.5375 4.32573 22.5375 4.05675C22.5375 3.78777 22.4306 3.52981 22.2404 3.33961C22.0502 3.14941 21.7923 3.04256 21.5233 3.04256H18.4807ZM11.9271 13.4055C8.54981 12.3609 9.40173 10.4948 10.6897 9.12769H29.5962C30.6266 10.4441 31.1794 12.2199 28.0648 13.2828C28.1921 14.4126 28.0805 15.5566 27.7373 16.6405C27.3941 17.7245 26.8269 18.7242 26.0724 19.5748C25.318 20.4254 24.3932 21.108 23.3581 21.5782C22.3229 22.0485 21.2005 22.2959 20.0635 22.3045C18.9266 22.3131 17.8005 22.0826 16.7584 21.628C15.7162 21.1734 14.7813 20.5049 14.0141 19.6657C13.2469 18.8266 12.6647 17.8356 12.3052 16.7569C11.9456 15.6783 11.8168 14.5361 11.9271 13.4045M19.7262 14.1976C22.4056 14.1976 24.4827 14.0556 26.075 13.8082C26.1273 14.635 26.0102 15.4639 25.7309 16.244C25.4516 17.024 25.016 17.7388 24.4506 18.3445C23.8853 18.9502 23.2023 19.4341 22.4433 19.7665C21.6844 20.0989 20.8656 20.2728 20.037 20.2776C19.2085 20.2824 18.3878 20.1179 17.625 19.7943C16.8623 19.4706 16.1737 18.9946 15.6015 18.3955C15.0292 17.7963 14.5854 17.0866 14.2971 16.3098C14.0088 15.533 13.8822 14.7056 13.925 13.8781C15.4088 14.083 17.3104 14.1976 19.7262 14.1976ZM28.5384 29.0058C27.6211 27.5745 26.3584 26.3971 24.8666 25.5818C23.3749 24.7666 21.702 24.3397 20.002 24.3405C18.3013 24.3394 16.6277 24.7664 15.1354 25.582C13.643 26.3976 12.38 27.5758 11.4626 29.0078C11.1221 28.4834 10.5992 28.104 9.99503 27.9429L8.03562 27.4186C7.38617 27.2445 6.69415 27.3354 6.11178 27.6715C5.52941 28.0076 5.10438 28.5612 4.93017 29.2106L4.14316 32.1498C4.05697 32.4714 4.03498 32.8069 4.07844 33.137C4.12191 33.4671 4.22998 33.7855 4.39649 34.0739C4.56299 34.3622 4.78467 34.615 5.04887 34.8177C5.31306 35.0204 5.61459 35.169 5.93625 35.2552L7.89464 35.7805C8.22406 35.8693 8.56802 35.8904 8.90582 35.8426C9.24361 35.7949 9.56824 35.6792 9.86014 35.5027C9.86095 35.7716 9.96857 36.0293 10.1593 36.2189C10.3501 36.4085 10.6084 36.5146 10.8774 36.5138C11.1464 36.513 11.404 36.4054 11.5936 36.2146C11.7832 36.0238 11.8893 35.7656 11.8885 35.4966V34.4824C11.8885 34.096 11.9159 33.7157 11.9676 33.3434L17.2455 34.7582C17.4904 35.2826 17.8799 35.7263 18.3682 36.0371C18.8564 36.3479 19.4232 36.513 20.002 36.513C20.5808 36.513 21.1476 36.3479 21.6359 36.0371C22.1241 35.7263 22.5136 35.2826 22.7586 34.7582L28.0364 33.3434C28.0881 33.7157 28.1155 34.096 28.1155 34.4824V35.4966C28.1142 35.7656 28.2197 36.024 28.409 36.2152C28.5982 36.4063 28.8557 36.5145 29.1246 36.5158C29.3936 36.5172 29.6521 36.4116 29.8433 36.2224C30.0344 36.0331 30.1426 35.7757 30.1439 35.5067C30.7118 35.8475 31.4137 35.9661 32.1043 35.7805L34.0637 35.2562C34.3854 35.1701 34.6869 35.0214 34.9511 34.8187C35.2153 34.616 35.437 34.3633 35.6035 34.0749C35.77 33.7865 35.8781 33.4682 35.9215 33.138C35.965 32.8079 35.943 32.4724 35.8568 32.1508L35.0688 29.2117C34.8946 28.5622 34.4695 28.0086 33.8872 27.6725C33.3048 27.3365 32.6128 27.2455 31.9633 27.4196L30.0039 27.9439C29.4012 28.1044 28.8792 28.4833 28.5384 29.0058ZM12.5001 31.3851C13.0481 30.0603 13.937 28.9041 15.0765 28.0342C16.216 27.1642 17.5655 26.6113 18.9878 26.4318V30.5991C18.5333 30.7603 18.1235 31.027 17.7921 31.3773C17.4606 31.7276 17.217 32.1515 17.0812 32.6143L12.5001 31.3851ZM27.504 31.3851C26.9559 30.0603 26.067 28.9043 24.9275 28.0343C23.788 27.1643 22.4385 26.6114 21.0162 26.4318V30.5991C21.933 30.9236 22.649 31.6741 22.9229 32.6143L27.504 31.3851ZM20.002 34.4824C20.271 34.4824 20.529 34.3755 20.7192 34.1853C20.9094 33.9951 21.0162 33.7372 21.0162 33.4682C21.0162 33.1992 20.9094 32.9413 20.7192 32.7511C20.529 32.5609 20.271 32.454 20.002 32.454C19.733 32.454 19.4751 32.5609 19.2849 32.7511C19.0947 32.9413 18.9878 33.1992 18.9878 33.4682C18.9878 33.7372 19.0947 33.9951 19.2849 34.1853C19.4751 34.3755 19.733 34.4824 20.002 34.4824Z" fill="white"/>
</g>
<defs>
<filter id="filter0_d_42_26" x="0" y="0" width="40" height="44.6293" filterUnits="userSpaceOnUse" color-interpolation-filters="sRGB">
<feFlood flood-opacity="0" result="BackgroundImageFix"/>
<feColorMatrix in="SourceAlpha" type="matrix" values="0 0 0 0 0 0 0 0 0 0 0 0 0 0 0 0 0 0 127 0" result="hardAlpha"/>
<feOffset dy="4"/>
<feGaussianBlur stdDeviation="2"/>
<feComposite in2="hardAlpha" operator="out"/>
<feColorMatrix type="matrix" values="0 0 0 0 0 0 0 0 0 0 0 0 0 0 0 0 0 0 0.25 0"/>
<feBlend mode="normal" in2="BackgroundImageFix" result="effect1_dropShadow_42_26"/>
<feBlend mode="normal" in="SourceGraphic" in2="effect1_dropShadow_42_26" result="shape"/>
</filter>
</defs>
</svg>
