<svg width="40" height="40" viewBox="0 0 40 40" fill="none" xmlns="http://www.w3.org/2000/svg">
<path d="M27.9997 15.9998C27.9997 18.1215 27.1568 20.1563 25.6566 21.6566C24.1563 23.1569 22.1215 23.9997 19.9998 23.9997C17.8781 23.9997 15.8433 23.1569 14.343 21.6566C12.8427 20.1563 11.9999 18.1215 11.9999 15.9998C11.9999 13.8781 12.8427 11.8433 14.343 10.343C15.8433 8.84276 17.8781 7.99991 19.9998 7.99991C22.1215 7.99991 24.1563 8.84276 25.6566 10.343C27.1568 11.8433 27.9997 13.8781 27.9997 15.9998Z" fill="white" fill-opacity="0.8"/>
<path fill-rule="evenodd" clip-rule="evenodd" d="M19.1838 39.9836C8.51691 39.5556 0 30.7717 0 19.9998C0 8.9539 8.9539 0 19.9998 0C31.0457 0 39.9996 8.9539 39.9996 19.9998C39.9996 31.0457 31.0457 39.9996 19.9998 39.9996C19.9084 40.0001 19.8171 40.0001 19.7258 39.9996C19.5448 39.9996 19.3638 39.9936 19.1838 39.9836ZM7.16592 32.6196C7.01639 32.1902 6.96549 31.7326 7.017 31.2808C7.06852 30.8291 7.22113 30.3947 7.4635 30.0099C7.70587 29.6252 8.03177 29.3 8.41703 29.0584C8.80229 28.8169 9.237 28.6652 9.68889 28.6147C17.4848 27.7517 22.5628 27.8297 30.3207 28.6327C30.7732 28.6798 31.2089 28.8296 31.5948 29.0706C31.9807 29.3116 32.3065 29.6374 32.5474 30.0234C32.7883 30.4093 32.9379 30.8451 32.9849 31.2976C33.0319 31.7502 32.9751 32.2074 32.8186 32.6346C36.1435 29.2706 38.0055 24.7297 37.9996 19.9998C37.9996 10.0589 29.9407 1.99998 19.9998 1.99998C10.0589 1.99998 1.99998 10.0589 1.99998 19.9998C1.99998 24.9157 3.97096 29.3717 7.16592 32.6196Z" fill="white" fill-opacity="0.8"/>
</svg>
