<svg width="90" height="90" viewBox="0 0 90 90" fill="none" xmlns="http://www.w3.org/2000/svg">
<path d="M53.9843 4.105e-06C62.2188 -0.00392726 70.2058 2.81606 76.6132 7.98965C83.0205 13.1632 87.4609 20.3777 89.1938 28.4297C90.9267 36.4818 89.8473 44.8847 86.1357 52.2371C82.424 59.5894 76.3045 65.4468 68.7977 68.8321C66.3982 74.1383 62.7478 78.7831 58.1595 82.3683C53.5713 85.9534 48.1821 88.3719 42.4542 89.4163C36.7263 90.4606 30.8306 90.0998 25.2727 88.3646C19.7148 86.6294 14.6607 83.5717 10.5437 79.4538C6.42672 75.3358 3.36976 70.2804 1.635 64.7212C-0.0997534 59.162 -0.460536 53.2649 0.583597 47.5356C1.62773 41.8063 4.04562 36.4158 7.6299 31.8264C11.2142 27.2371 15.8579 23.5858 21.1627 21.1857C24.0163 14.8705 28.6306 9.51264 34.4522 5.75488C40.2739 1.99711 47.0557 -0.001067 53.9843 4.105e-06ZM40.4849 31.5063H31.4853V36.0071C28.5726 36.0175 25.7774 37.1574 23.6879 39.1871C21.5984 41.2169 20.3774 43.9781 20.2818 46.89C20.1862 49.8018 21.2234 52.6373 23.1753 54.7997C25.1272 56.9622 27.8416 58.2831 30.7473 58.4846L31.4853 58.5116H40.4849L40.8899 58.5476C41.4086 58.6416 41.8779 58.9147 42.2159 59.3195C42.5538 59.7242 42.7389 60.2347 42.7389 60.762C42.7389 61.2894 42.5538 61.7999 42.2159 62.2046C41.8779 62.6094 41.4086 62.8825 40.8899 62.9765L40.4849 63.0125H22.4857V72.0143H31.4853V76.5152H40.4849V72.0143C43.4093 72.0214 46.2215 70.8892 48.3254 68.8576C50.4294 66.826 51.6598 64.0548 51.7557 61.1313C51.8517 58.2078 50.8057 55.3618 48.8395 53.1966C46.8733 51.0314 44.1414 49.7171 41.2229 49.5323L40.4849 49.5098H31.4853L31.0803 49.4738C30.5616 49.3799 30.0923 49.1067 29.7543 48.702C29.4164 48.2972 29.2313 47.7867 29.2313 47.2594C29.2313 46.7321 29.4164 46.2215 29.7543 45.8168C30.0923 45.4121 30.5616 45.1389 31.0803 45.0449L31.4853 45.0089H49.4845V36.0071H40.4849V31.5063ZM53.9843 9.00179C50.1708 8.99669 46.3997 9.80173 42.9206 11.3637C39.4414 12.9256 36.3336 15.2087 33.8027 18.0621C38.8887 17.7533 43.9822 18.5279 48.7466 20.3348C53.5109 22.1417 57.8375 24.9396 61.4403 28.5437C65.043 32.1477 67.8398 36.4757 69.6457 41.2414C71.4515 46.0071 72.2254 51.102 71.9161 56.1891C76.0073 52.5507 78.8962 47.7542 80.1994 42.4358C81.5026 37.1174 81.1586 31.5284 79.2131 26.41C77.2676 21.2916 73.8124 16.8857 69.3059 13.7767C64.7993 10.6677 59.4543 9.00242 53.9798 9.00179" fill="white"/>
</svg>
