<svg width="40" height="40" viewBox="0 0 40 40" fill="none" xmlns="http://www.w3.org/2000/svg">
<path d="M0.759494 19.5066C0.759494 12.065 0.759493 8.3432 3.01448 6.03237C5.26754 3.71956 8.8963 3.71956 16.1519 3.71956H23.8481C31.1037 3.71956 34.7325 3.71956 36.9855 6.03237C39.2405 8.3432 39.2405 12.065 39.2405 19.5066V23.4534C39.2405 30.895 39.2405 34.6169 36.9855 36.9277C34.7325 39.2405 31.1037 39.2405 23.8481 39.2405H16.1519C8.8963 39.2405 5.26754 39.2405 3.01448 36.9277C0.759493 34.6169 0.759494 30.895 0.759494 23.4534V19.5066Z" stroke="white" stroke-opacity="0.8" stroke-width="1.5"/>
<path opacity="0.5" d="M10.3797 3.71957V0.759494M29.6202 3.71957V0.759494M1.72152 13.5865H38.2785" stroke="white" stroke-opacity="0.8" stroke-width="1.5" stroke-linecap="round"/>
<path d="M31.5443 29.3736C31.5443 29.897 31.3416 30.3989 30.9807 30.769C30.6199 31.1391 30.1305 31.347 29.6202 31.347C29.1099 31.347 28.6205 31.1391 28.2597 30.769C27.8989 30.3989 27.6962 29.897 27.6962 29.3736C27.6962 28.8502 27.8989 28.3483 28.2597 27.9782C28.6205 27.6081 29.1099 27.4002 29.6202 27.4002C30.1305 27.4002 30.6199 27.6081 30.9807 27.9782C31.3416 28.3483 31.5443 28.8502 31.5443 29.3736ZM31.5443 21.48C31.5443 22.0034 31.3416 22.5053 30.9807 22.8754C30.6199 23.2455 30.1305 23.4534 29.6202 23.4534C29.1099 23.4534 28.6205 23.2455 28.2597 22.8754C27.8989 22.5053 27.6962 22.0034 27.6962 21.48C27.6962 20.9567 27.8989 20.4547 28.2597 20.0846C28.6205 19.7146 29.1099 19.5067 29.6202 19.5067C30.1305 19.5067 30.6199 19.7146 30.9807 20.0846C31.3416 20.4547 31.5443 20.9567 31.5443 21.48ZM21.924 29.3736C21.924 29.897 21.7213 30.3989 21.3605 30.769C20.9997 31.1391 20.5103 31.347 20 31.347C19.4897 31.347 19.0003 31.1391 18.6395 30.769C18.2786 30.3989 18.0759 29.897 18.0759 29.3736C18.0759 28.8502 18.2786 28.3483 18.6395 27.9782C19.0003 27.6081 19.4897 27.4002 20 27.4002C20.5103 27.4002 20.9997 27.6081 21.3605 27.9782C21.7213 28.3483 21.924 28.8502 21.924 29.3736ZM21.924 21.48C21.924 22.0034 21.7213 22.5053 21.3605 22.8754C20.9997 23.2455 20.5103 23.4534 20 23.4534C19.4897 23.4534 19.0003 23.2455 18.6395 22.8754C18.2786 22.5053 18.0759 22.0034 18.0759 21.48C18.0759 20.9567 18.2786 20.4547 18.6395 20.0846C19.0003 19.7146 19.4897 19.5067 20 19.5067C20.5103 19.5067 20.9997 19.7146 21.3605 20.0846C21.7213 20.4547 21.924 20.9567 21.924 21.48ZM12.3038 29.3736C12.3038 29.897 12.1011 30.3989 11.7402 30.769C11.3794 31.1391 10.89 31.347 10.3797 31.347C9.86943 31.347 9.38004 31.1391 9.01921 30.769C8.65838 30.3989 8.45567 29.897 8.45567 29.3736C8.45567 28.8502 8.65838 28.3483 9.01921 27.9782C9.38004 27.6081 9.86943 27.4002 10.3797 27.4002C10.89 27.4002 11.3794 27.6081 11.7402 27.9782C12.1011 28.3483 12.3038 28.8502 12.3038 29.3736ZM12.3038 21.48C12.3038 22.0034 12.1011 22.5053 11.7402 22.8754C11.3794 23.2455 10.89 23.4534 10.3797 23.4534C9.86943 23.4534 9.38004 23.2455 9.01921 22.8754C8.65838 22.5053 8.45567 22.0034 8.45567 21.48C8.45567 20.9567 8.65838 20.4547 9.01921 20.0846C9.38004 19.7146 9.86943 19.5067 10.3797 19.5067C10.89 19.5067 11.3794 19.7146 11.7402 20.0846C12.1011 20.4547 12.3038 20.9567 12.3038 21.48Z" fill="white"/>
</svg>
