<svg width="37" height="37" viewBox="0 0 37 37" fill="none" xmlns="http://www.w3.org/2000/svg">
<path fill-rule="evenodd" clip-rule="evenodd" d="M25.2271 13.4545C25.2271 15.2387 24.5183 16.9498 23.2567 18.2114C21.9951 19.473 20.284 20.1818 18.4998 20.1818C16.7156 20.1818 15.0045 19.473 13.7429 18.2114C12.4813 16.9498 11.7726 15.2387 11.7726 13.4545C11.7726 11.6704 12.4813 9.95925 13.7429 8.69764C15.0045 7.43603 16.7156 6.72727 18.4998 6.72727C20.284 6.72727 21.9951 7.43603 23.2567 8.69764C24.5183 9.95925 25.2271 11.6704 25.2271 13.4545ZM21.8635 13.4545C21.8635 14.3466 21.5091 15.2022 20.8783 15.833C20.2475 16.4638 19.3919 16.8182 18.4998 16.8182C17.6077 16.8182 16.7522 16.4638 16.1214 15.833C15.4906 15.2022 15.1362 14.3466 15.1362 13.4545C15.1362 12.5624 15.4906 11.7069 16.1214 11.0761C16.7522 10.4453 17.6077 10.0909 18.4998 10.0909C19.3919 10.0909 20.2475 10.4453 20.8783 11.0761C21.5091 11.7069 21.8635 12.5624 21.8635 13.4545Z" fill="white"/>
<path fill-rule="evenodd" clip-rule="evenodd" d="M18.5 0C8.28295 0 0 8.28295 0 18.5C0 28.717 8.28295 37 18.5 37C28.717 37 37 28.717 37 18.5C37 8.28295 28.717 0 18.5 0ZM3.36364 18.5C3.36364 22.015 4.56277 25.2508 6.57255 27.8206C7.98398 25.9671 9.80483 24.465 11.8929 23.4316C13.9809 22.3982 16.2796 21.8616 18.6093 21.8636C20.9089 21.8615 23.1787 22.3842 25.2457 23.392C27.3126 24.3999 29.1223 25.8662 30.5368 27.6794C31.994 25.7681 32.9751 23.5374 33.399 21.1717C33.823 18.806 33.6774 16.3734 32.9746 14.0751C32.2717 11.7768 31.0316 9.67894 29.357 7.95506C27.6823 6.23118 25.6212 4.93085 23.3443 4.16167C21.0673 3.39249 18.6399 3.17657 16.2629 3.53177C13.886 3.88697 11.6277 4.80309 9.67511 6.20432C7.72248 7.60554 6.13159 9.4516 5.03407 11.5897C3.93654 13.7279 3.36394 16.0966 3.36364 18.5ZM18.5 33.6364C15.0253 33.6416 11.6554 32.4462 8.96073 30.2525C10.0454 28.6998 11.4891 27.432 13.169 26.5571C14.8489 25.6821 16.7152 25.2259 18.6093 25.2273C20.4798 25.2258 22.3236 25.6706 23.9876 26.5247C25.6517 27.3788 27.088 28.6176 28.1772 30.1382C25.4615 32.4031 22.0362 33.6413 18.5 33.6364Z" fill="white"/>
</svg>
