<svg width="44" height="32" viewBox="0 0 44 32" fill="none" xmlns="http://www.w3.org/2000/svg">
<path d="M41.4838 11.0943C42.1937 10.9498 42.8319 10.5646 43.2904 10.0037C43.7489 9.44279 43.9996 8.74071 44 8.01625V3.14286C44 2.30932 43.6689 1.50992 43.0795 0.920521C42.4901 0.331121 41.6907 0 40.8572 0H3.14286C2.30933 0 1.50993 0.331121 0.920527 0.920521C0.331127 1.50992 5.98861e-06 2.30932 5.98861e-06 3.14286V8.01625C0.00040321 8.74071 0.251072 9.44279 0.709595 10.0037C1.16812 10.5646 1.80634 10.9498 2.51626 11.0943C3.57777 11.3144 4.53097 11.8937 5.2153 12.7345C5.89963 13.5753 6.27327 14.6263 6.27327 15.7104C6.27327 16.7945 5.89963 17.8454 5.2153 18.6862C4.53097 19.527 3.57777 20.1063 2.51626 20.3264C1.80502 20.4711 1.16578 20.8576 0.707107 21.4201C0.248432 21.9826 -0.00141032 22.6865 5.98861e-06 23.4123V28.2857C5.98861e-06 29.1193 0.331127 29.9186 0.920527 30.508C1.50993 31.0974 2.30933 31.4286 3.14286 31.4286H40.8572C41.6907 31.4286 42.4901 31.0974 43.0795 30.508C43.6689 29.9186 44 29.1193 44 28.2857V23.4123C43.9996 22.6879 43.7489 21.9858 43.2904 21.4249C42.8319 20.864 42.1937 20.4787 41.4838 20.3343C40.4222 20.1142 39.469 19.5349 38.7847 18.6941C38.1004 17.8533 37.7267 16.8023 37.7267 15.7182C37.7267 14.6341 38.1004 13.5831 38.7847 12.7423C39.469 11.9015 40.4222 11.3223 41.4838 11.1021V11.0943ZM3.14286 23.4143C4.91798 23.0527 6.5136 22.0888 7.65962 20.6858C8.80563 19.2828 9.43163 17.5268 9.43163 15.7153C9.43163 13.9037 8.80563 12.1478 7.65962 10.7448C6.5136 9.34176 4.91798 8.37786 3.14286 8.01625V3.14286H14.1429V28.2857H3.14286V23.4143ZM40.8572 23.4143V28.2857H17.2857V3.14286H40.8572V8.01429C39.082 8.3759 37.4864 9.3398 36.3404 10.7428C35.1944 12.1458 34.5684 13.9017 34.5684 15.7133C34.5684 17.5249 35.1944 19.2808 36.3404 20.6838C37.4864 22.0868 39.082 23.0507 40.8572 23.4123V23.4143Z" fill="white"/>
</svg>
