<svg width="20" height="25" viewBox="0 0 20 25" fill="none" xmlns="http://www.w3.org/2000/svg">
<path fill-rule="evenodd" clip-rule="evenodd" d="M7.06364 2.50264L3.17079 11.2619H7.48409C8.3475 11.2619 8.95564 12.1065 8.68285 12.9261L6.61067 19.1414L15.7428 10.0105H12.5269C12.3115 10.0105 12.0996 9.95538 11.9115 9.85042C11.7233 9.74546 11.5651 9.59415 11.4519 9.41085C11.3387 9.22755 11.2742 9.01835 11.2646 8.80312C11.255 8.5879 11.3005 8.37378 11.397 8.18112L14.2362 2.50264H7.06364ZM5.10408 0.750791C5.30679 0.29406 5.75852 0 6.25905 0H16.2408C17.1793 0 17.7912 0.988541 17.3708 1.82943L14.5315 7.50791H18.7334C19.8596 7.50791 20.4227 8.86934 19.6269 9.66518L4.66987 24.6222C3.72638 25.5657 2.15472 24.5947 2.57767 23.3296L5.76603 13.7645H1.26378C1.05324 13.7645 0.84604 13.7119 0.660994 13.6115C0.475948 13.511 0.318923 13.366 0.204181 13.1894C0.0894384 13.0129 0.0206144 12.8105 0.00396038 12.6006C-0.0126936 12.3908 0.02335 12.18 0.108817 11.9876L5.10408 0.750791Z" fill="white" fill-opacity="0.6"/>
</svg>
