<svg width="25" height="31" viewBox="0 0 25 31" fill="none" xmlns="http://www.w3.org/2000/svg">
<g clip-path="url(#clip0_0_25)">
<mask id="mask0_0_25" style="mask-type:luminance" maskUnits="userSpaceOnUse" x="0" y="0" width="25" height="31">
<path d="M0 0H24.9999V30.3462H0V0Z" fill="white"/>
</mask>
<g mask="url(#mask0_0_25)">
<path fill-rule="evenodd" clip-rule="evenodd" d="M24.9999 0H0V30.3462H24.9999V0ZM13.3817 17.9529L16.0864 21.1924C16.1901 21.3166 16.2712 21.4659 16.3244 21.6305L17.7666 26.0908C17.8166 26.2454 17.841 26.4104 17.8385 26.5764C17.8359 26.7425 17.8064 26.9063 17.7517 27.0585C17.6971 27.2108 17.6182 27.3484 17.5197 27.4636C17.4211 27.5789 17.3049 27.6694 17.1775 27.7301C17.0502 27.7908 16.9142 27.8204 16.7774 27.8174C16.6406 27.8143 16.5057 27.7785 16.3803 27.7121C16.2549 27.6457 16.1415 27.55 16.0465 27.4304C15.9516 27.3108 15.877 27.1697 15.827 27.0151L14.4656 22.8039L9.81558 17.2341C9.70322 17.0996 9.6175 16.9359 9.56489 16.7553C9.51229 16.5747 9.49418 16.3819 9.51193 16.1916L9.88433 12.196C8.98642 13.2796 8.29371 14.8026 7.76298 16.8213C7.67528 17.1351 7.48959 17.3946 7.24588 17.5439C7.00216 17.6932 6.71989 17.7204 6.45982 17.6196C6.19974 17.5189 5.98265 17.2982 5.85525 17.0051C5.72785 16.7121 5.70033 16.37 5.77862 16.0525C6.75257 12.3477 8.36975 9.57486 11.0833 8.30348L11.0953 8.29779C11.7864 7.98611 12.5051 8.0114 13.1458 8.41285C13.7609 8.79913 14.1989 9.46612 14.4859 10.2134C14.6067 10.5282 14.7182 10.8222 14.8234 11.0985C15.0775 11.7674 15.2911 12.3313 15.4968 12.8257C15.7848 13.5211 16.0166 13.9826 16.2458 14.3063C16.4583 14.606 16.6692 14.7906 16.9385 14.9183C17.228 15.0555 17.6338 15.1503 18.2603 15.1731C18.5346 15.1864 18.7934 15.3306 18.9806 15.5743C19.1677 15.8179 19.2681 16.1414 19.2599 16.4744C19.2516 16.8075 19.1355 17.1231 18.9366 17.3527C18.7377 17.5823 18.4722 17.7074 18.1978 17.7007C17.4452 17.6735 16.777 17.5565 16.1806 17.2739C15.5645 16.9819 15.0786 16.5374 14.665 15.9526C14.4046 15.5847 14.1755 15.1642 13.9619 14.7072L13.3817 17.9529ZM9.51193 19.1055L11.2385 21.1159L10.4437 24.3699C10.3822 24.6217 10.2577 24.8439 10.0875 25.0059L7.41298 27.5493C7.19542 27.756 6.91912 27.8494 6.64485 27.8089C6.37058 27.7683 6.12081 27.5972 5.95049 27.3331C5.78017 27.069 5.70326 26.7336 5.73666 26.4007C5.77007 26.0677 5.91106 25.7646 6.12862 25.5578L8.5411 23.2642L9.26766 20.2864L9.51193 19.1055ZM16.276 5.0577C16.276 5.72839 16.0565 6.37162 15.6658 6.84587C15.2751 7.32012 14.7452 7.58655 14.1926 7.58655C13.6401 7.58655 13.1102 7.32012 12.7195 6.84587C12.3288 6.37162 12.1093 5.72839 12.1093 5.0577C12.1093 4.38701 12.3288 3.74378 12.7195 3.26953C13.1102 2.79528 13.6401 2.52885 14.1926 2.52885C14.7452 2.52885 15.2751 2.79528 15.6658 3.26953C16.0565 3.74378 16.276 4.38701 16.276 5.0577Z" fill="#FC2424" fill-opacity="0.9"/>
</g>
</g>
<defs>
<clipPath id="clip0_0_25">
<rect width="24.9999" height="30.3462" rx="12.4697" fill="white"/>
</clipPath>
</defs>
</svg>
